<svg width="27" height="28" viewBox="0 0 27 28" fill="none" xmlns="http://www.w3.org/2000/svg">
<path d="M15.1875 23.3333C15.1875 23.3333 16.3125 23.3333 17.4375 25.6667C17.4375 25.6667 21.0111 19.8333 24.1875 18.6667" stroke="#000070" stroke-width="1.5" stroke-linecap="round" stroke-linejoin="round"/>
<path d="M7.875 18.6667H12.375M7.875 12.8333H16.875" stroke="#000070" stroke-width="1.5" stroke-linecap="round"/>
<path d="M7.3125 4.08334C5.56223 4.13779 4.51869 4.33982 3.79662 5.08933C2.80811 6.11541 2.80811 7.76686 2.80811 11.0698V18.6601C2.80811 21.9631 2.80811 23.6145 3.79662 24.6406C4.78514 25.6667 6.37613 25.6667 9.55811 25.6667H12.3706M17.4287 4.08334C19.179 4.13779 20.2226 4.33982 20.9446 5.08934C21.9331 6.11541 21.9331 7.76686 21.9331 11.0698V15.75" stroke="#000070" stroke-width="1.5" stroke-linecap="round"/>
<path d="M7.30811 4.37501C7.30811 3.24743 8.18955 2.33334 9.27686 2.33334H15.4644C16.5517 2.33334 17.4331 3.24743 17.4331 4.37501C17.4331 5.50259 16.5517 6.41668 15.4644 6.41668H9.27686C8.18955 6.41668 7.30811 5.50259 7.30811 4.37501Z" stroke="#000070" stroke-width="1.5" stroke-linejoin="round"/>
</svg>
