<svg width="24" height="24" viewBox="0 0 24 24" fill="none" xmlns="http://www.w3.org/2000/svg">
<path d="M22.125 19.5C22.125 19.7984 22.0065 20.0845 21.7955 20.2955C21.5845 20.5065 21.2984 20.625 21 20.625H3C2.70163 20.625 2.41548 20.5065 2.2045 20.2955C1.99353 20.0845 1.875 19.7984 1.875 19.5V4.5C1.875 4.20163 1.99353 3.91548 2.2045 3.7045C2.41548 3.49353 2.70163 3.375 3 3.375C3.29837 3.375 3.58452 3.49353 3.7955 3.7045C4.00647 3.91548 4.125 4.20163 4.125 4.5V13.7812L8.20406 9.70125C8.30858 9.59637 8.43277 9.51315 8.56952 9.45637C8.70626 9.39959 8.85287 9.37036 9.00094 9.37036C9.149 9.37036 9.29561 9.39959 9.43236 9.45637C9.5691 9.51315 9.6933 9.59637 9.79781 9.70125L12 11.9062L16.0312 7.875H15C14.7016 7.875 14.4155 7.75647 14.2045 7.5455C13.9935 7.33452 13.875 7.04837 13.875 6.75C13.875 6.45163 13.9935 6.16548 14.2045 5.9545C14.4155 5.74353 14.7016 5.625 15 5.625H18.75C19.0484 5.625 19.3345 5.74353 19.5455 5.9545C19.7565 6.16548 19.875 6.45163 19.875 6.75V10.5C19.875 10.7984 19.7565 11.0845 19.5455 11.2955C19.3345 11.5065 19.0484 11.625 18.75 11.625C18.4516 11.625 18.1655 11.5065 17.9545 11.2955C17.7435 11.0845 17.625 10.7984 17.625 10.5V9.46875L12.7959 14.2987C12.6914 14.4036 12.5672 14.4868 12.4305 14.5436C12.2937 14.6004 12.1471 14.6296 11.9991 14.6296C11.851 14.6296 11.7044 14.6004 11.5676 14.5436C11.4309 14.4868 11.3067 14.4036 11.2022 14.2987L9 12.0938L4.125 16.9688V18.375H21C21.2984 18.375 21.5845 18.4935 21.7955 18.7045C22.0065 18.9155 22.125 19.2016 22.125 19.5Z" fill="#000070"/>
</svg>
