<svg width="32" height="31" viewBox="0 0 32 31" fill="none" xmlns="http://www.w3.org/2000/svg">
<path d="M6.66667 15.5H4L16 3.875L28 15.5H25.3333" stroke="#000070" stroke-width="2" stroke-linecap="round" stroke-linejoin="round"/>
<path d="M6.6665 15.5V24.5417C6.6665 25.2268 6.94746 25.8839 7.44755 26.3684C7.94765 26.8528 8.62593 27.125 9.33317 27.125H22.6665C23.3737 27.125 24.052 26.8528 24.5521 26.3684C25.0522 25.8839 25.3332 25.2268 25.3332 24.5417V15.5" stroke="#000070" stroke-width="2" stroke-linecap="round" stroke-linejoin="round"/>
<path d="M12 27.125V19.375C12 18.6898 12.281 18.0328 12.781 17.5483C13.2811 17.0638 13.9594 16.7917 14.6667 16.7917H17.3333C18.0406 16.7917 18.7189 17.0638 19.219 17.5483C19.719 18.0328 20 18.6898 20 19.375V27.125" stroke="#000070" stroke-width="2" stroke-linecap="round" stroke-linejoin="round"/>
</svg>
